<?xml version="1.0" standalone="no"?>
<!DOCTYPE svg PUBLIC "-//W3C//DTD SVG 20010904//EN"
 "http://www.w3.org/TR/2001/REC-SVG-20010904/DTD/svg10.dtd">
<svg version="1.0" xmlns="http://www.w3.org/2000/svg"
 width="735.000000pt" height="744.000000pt" viewBox="0 0 735.000000 744.000000"
 preserveAspectRatio="xMidYMid meet">

<g transform="translate(0.000000,744.000000) scale(0.100000,-0.100000)"
fill="#000000" stroke="none">
<path d="M4110 6854 c-6 -14 -10 -31 -10 -37 -1 -32 -27 -46 -91 -49 l-64 -3
46 -32 c26 -18 50 -40 53 -49 4 -10 -1 -39 -10 -66 -9 -27 -14 -52 -10 -55 3
-3 23 9 44 26 22 17 47 31 57 31 9 0 37 -14 61 -31 25 -17 47 -29 49 -27 2 2
-2 22 -10 43 -24 67 -20 82 30 117 25 18 45 35 45 40 0 4 -26 8 -59 8 -66 0
-74 6 -90 68 -13 48 -27 54 -41 16z"/>
<path d="M3404 6814 l-19 -59 -55 -3 c-30 -2 -58 -7 -63 -11 -4 -4 13 -22 38
-40 49 -35 52 -47 30 -111 -8 -24 -13 -45 -11 -48 3 -2 24 10 48 27 23 17 48
31 56 31 7 0 33 -13 56 -30 24 -16 46 -27 49 -24 2 3 -2 26 -9 51 -20 66 -19
70 31 105 25 18 45 35 45 40 0 4 -27 8 -60 8 -56 0 -60 2 -75 30 -8 16 -15 35
-15 43 0 7 -6 21 -13 31 -12 17 -16 13 -33 -40z"/>
<path d="M2754 6678 c-9 -29 -22 -56 -28 -60 -6 -4 -36 -8 -66 -8 l-55 -1 25
-22 c14 -12 37 -29 50 -38 l24 -16 -17 -61 c-9 -34 -17 -64 -17 -68 0 -3 22
10 49 30 27 20 54 36 60 36 6 0 33 -16 61 -36 54 -39 58 -36 35 19 -25 61 -20
80 33 118 l47 34 -45 3 c-83 4 -88 8 -106 67 -10 30 -21 55 -25 55 -4 0 -15
-24 -25 -52z"/>
<path d="M4732 6613 c-6 -16 -14 -39 -18 -53 -9 -34 -21 -40 -81 -40 -29 0
-53 -3 -53 -8 0 -4 18 -18 40 -32 49 -31 54 -45 35 -100 -19 -53 -19 -60 0
-60 8 0 15 4 15 8 0 5 18 19 41 31 l41 23 43 -31 c58 -42 67 -40 50 10 -24 67
-20 82 33 120 l47 34 -35 3 c-92 6 -96 8 -116 67 -10 30 -21 55 -25 55 -4 0
-11 -12 -17 -27z"/>
<path d="M2236 6415 c-19 -61 -38 -72 -101 -62 -51 8 -51 -7 0 -44 49 -36 53
-49 30 -114 -22 -59 -20 -60 35 -21 28 20 53 36 58 36 4 0 31 -16 60 -35 28
-20 52 -33 52 -30 0 3 -7 32 -16 64 l-17 59 29 26 c16 14 37 28 47 32 33 11
12 29 -31 26 -67 -5 -79 3 -97 63 -8 30 -19 55 -23 55 -5 0 -16 -25 -26 -55z"/>
<path d="M3571 6281 c-8 -15 -7 -23 5 -35 26 -27 58 -12 52 25 -4 31 -42 38
-57 10z"/>
<path d="M5284 6233 c-32 -100 -35 -103 -108 -104 l-61 0 29 -22 c84 -63 81
-58 63 -112 -26 -74 -22 -79 34 -39 56 41 63 40 128 -13 l34 -28 -7 35 c-21
105 -22 102 31 140 l48 35 -60 3 c-32 2 -65 8 -71 13 -7 6 -18 32 -25 60 -13
51 -26 62 -35 32z"/>
<path d="M3013 6194 c-8 -20 8 -48 30 -52 22 -5 42 35 26 54 -16 19 -48 18
-56 -2z"/>
<path d="M3561 6149 c6 -13 10 -56 7 -110 l-3 -89 44 0 c35 0 42 3 37 16 -3 9
-6 58 -6 110 l0 94 -45 0 c-43 0 -45 -1 -34 -21z"/>
<path d="M3364 6145 c-16 -12 -17 -14 -3 -15 21 0 25 -10 40 -110 l13 -82 34
6 c19 3 36 6 37 8 8 8 -33 176 -48 196 -13 16 -49 15 -73 -3z"/>
<path d="M3764 6142 c-45 -38 -56 -90 -29 -142 15 -29 43 -50 65 -50 6 0 8 5
4 11 -12 19 -4 142 11 171 13 26 12 28 -8 28 -12 -1 -31 -9 -43 -18z"/>
<path d="M3894 6072 c0 -48 -6 -97 -13 -109 -14 -28 -3 -30 40 -7 67 34 75
133 15 179 -18 14 -35 25 -37 25 -2 0 -4 -39 -5 -88z"/>
<path d="M3235 6126 c-26 -8 -35 -14 -25 -18 18 -6 46 -144 37 -178 -4 -17 0
-20 25 -20 41 0 72 18 59 34 -6 7 -14 45 -17 85 -9 95 -24 114 -79 97z"/>
<path d="M4093 6116 c7 -16 -23 -131 -44 -168 -14 -28 -11 -35 19 -41 15 -3
36 -9 46 -13 16 -6 18 -4 12 11 -7 18 19 111 35 130 5 5 9 23 9 41 0 25 -5 33
-24 38 -13 3 -32 9 -42 13 -14 5 -16 3 -11 -11z"/>
<path d="M1800 6054 c-16 -58 -41 -74 -103 -69 -26 2 -47 -1 -47 -6 0 -5 20
-24 45 -41 49 -35 52 -45 30 -108 -8 -23 -15 -44 -15 -46 0 -12 27 0 60 26 21
17 43 30 49 30 6 0 31 -14 56 -32 24 -17 47 -29 50 -26 3 3 -2 28 -11 55 -19
58 -14 71 35 105 47 31 41 44 -18 40 -55 -4 -73 12 -92 81 -5 20 -14 37 -18
37 -5 0 -14 -21 -21 -46z"/>
<path d="M3058 6078 c-15 -12 -15 -20 12 -101 16 -48 26 -95 23 -103 -6 -17
-5 -17 38 -3 19 6 40 13 48 15 11 4 11 7 -2 22 -8 9 -26 53 -40 97 -26 84 -44
100 -79 73z"/>
<path d="M4240 6060 c7 -12 7 -27 2 -37 -5 -10 -15 -42 -22 -71 -6 -28 -16
-55 -21 -58 -18 -11 -8 -23 27 -34 19 -7 37 -10 38 -8 6 7 46 165 46 183 0 22
-28 44 -58 45 -20 0 -21 -3 -12 -20z"/>
<path d="M2858 6006 c-23 -17 -23 -22 1 -29 22 -5 91 -134 84 -154 -6 -18 10
-16 51 4 30 14 33 19 23 31 -6 8 -28 47 -47 86 -31 63 -39 71 -65 73 -16 2
-38 -3 -47 -11z"/>
<path d="M4670 5980 c-19 -10 -46 -28 -59 -41 -27 -25 -60 -94 -61 -124 0 -36
21 -95 43 -121 l22 -25 0 48 c1 41 9 62 58 140 62 98 86 122 127 124 l25 1
-25 8 c-43 14 -94 10 -130 -10z"/>
<path d="M2715 5934 c-20 -15 -20 -15 1 -20 15 -4 35 -33 63 -90 l41 -84 28
17 c15 9 28 17 29 18 1 0 -11 27 -27 59 -17 32 -30 69 -30 81 0 35 -68 48
-105 19z"/>
<path d="M4878 5893 c6 -60 9 -63 32 -33 22 28 26 50 8 50 -6 0 -19 7 -29 15
-16 15 -16 13 -11 -32z"/>
<path d="M2608 5884 c-29 -15 -35 -28 -18 -39 11 -7 80 -150 80 -166 0 -8 53
13 69 27 2 2 -11 34 -29 71 -67 137 -60 130 -102 107z"/>
<path d="M5011 5777 c-22 -27 10 -64 45 -50 23 9 14 57 -12 61 -11 2 -26 -3
-33 -11z"/>
<path d="M5654 5723 l-19 -58 -63 -3 c-34 -2 -62 -7 -62 -12 0 -4 15 -18 34
-29 58 -36 61 -44 41 -107 -9 -30 -15 -57 -13 -59 2 -2 27 12 55 32 l51 35 45
-31 c61 -42 69 -40 50 14 -20 59 -12 85 37 115 22 13 40 28 40 32 0 4 -26 8
-59 8 -67 0 -75 6 -91 73 -7 26 -16 47 -19 47 -4 0 -16 -26 -27 -57z"/>
<path d="M2428 5743 c-32 -5 -37 -19 -9 -28 23 -7 111 -111 111 -131 0 -20 18
-17 30 5 20 39 12 91 -19 122 -16 16 -36 29 -44 29 -9 0 -21 2 -29 3 -7 2 -25
2 -40 0z"/>
<path d="M4930 5689 c0 -12 -56 -85 -97 -127 l-22 -22 27 -25 c27 -25 42 -31
42 -17 0 4 27 40 60 80 33 41 60 77 60 82 0 9 -45 40 -60 40 -5 0 -10 -5 -10
-11z"/>
<path d="M1497 5660 c-8 -19 -20 -47 -26 -62 -10 -27 -14 -28 -78 -29 -67 0
-68 0 -43 -17 14 -9 38 -29 55 -43 l29 -27 -18 -57 c-9 -31 -15 -59 -12 -62 3
-3 23 9 44 26 22 17 50 31 62 31 12 0 40 -14 62 -31 21 -17 41 -29 43 -27 3 3
-2 27 -10 54 -21 68 -20 69 30 106 24 18 44 36 45 40 0 4 -28 8 -62 10 l-63 3
-21 60 -22 60 -15 -35z"/>
<path d="M2338 5670 c-47 -66 11 -170 95 -170 28 0 73 29 45 30 -21 0 -116
115 -120 144 -3 20 -4 20 -20 -4z"/>
<path d="M4764 5666 c-11 -8 -36 -19 -55 -24 -23 -7 -27 -10 -13 -11 12 -1 27
-8 34 -16 18 -22 26 -19 49 21 29 49 25 58 -15 30z"/>
<path d="M3636 5626 c-5 -22 7 -76 18 -76 2 0 3 20 1 44 -2 35 1 46 14 49 11
3 10 5 -5 6 -15 1 -24 -6 -28 -23z"/>
<path d="M3747 5643 c-4 -3 -6 -20 -6 -37 1 -21 3 -25 6 -11 3 11 9 24 14 30
17 18 4 36 -14 18z"/>
<path d="M3545 5628 c-9 -22 4 -43 17 -30 7 7 7 16 0 29 -10 17 -11 17 -17 1z"/>
<path d="M3798 5628 c5 -7 12 -24 15 -38 4 -22 4 -21 6 6 1 21 -5 34 -15 38
-13 5 -14 3 -6 -6z"/>
<path d="M3471 5578 c1 -37 2 -39 9 -18 12 36 12 60 0 60 -5 0 -10 -19 -9 -42z"/>
<path d="M5125 5609 c-4 -6 -14 -13 -24 -17 -19 -8 -161 -157 -161 -169 1 -14
24 -39 48 -52 20 -11 22 -9 22 11 0 28 97 128 123 128 10 0 16 4 13 9 -3 5 3
20 14 33 17 23 18 27 4 46 -17 24 -29 28 -39 11z"/>
<path d="M3960 5589 c0 -5 5 -7 10 -4 6 3 10 8 10 11 0 2 -4 4 -10 4 -5 0 -10
-5 -10 -11z"/>
<path d="M2033 5564 c-42 -21 -42 -34 1 -34 24 0 51 -12 94 -44 95 -70 132
-112 132 -149 0 -29 1 -30 14 -12 35 52 27 119 -22 184 -47 63 -150 89 -219
55z"/>
<path d="M3360 5578 c2 -27 32 -84 46 -87 16 -3 16 -1 5 13 -7 9 -11 23 -7 31
3 9 0 15 -9 15 -8 0 -15 7 -15 15 0 8 -4 15 -10 15 -5 0 -10 -1 -10 -2z"/>
<path d="M3932 5568 c-15 -15 -16 -45 -2 -53 5 -3 7 0 4 9 -3 8 -1 24 6 35 12
24 10 27 -8 9z"/>
<path d="M3520 5555 c0 -8 5 -15 10 -15 6 0 10 7 10 15 0 8 -4 15 -10 15 -5 0
-10 -7 -10 -15z"/>
<path d="M4051 5533 c0 -6 -8 -19 -17 -28 -21 -20 -13 -29 10 -12 11 8 16 21
13 33 -2 10 -5 14 -6 7z"/>
<path d="M3270 5514 c0 -25 46 -82 57 -70 4 5 2 11 -4 13 -7 3 -13 9 -13 15 0
5 -9 21 -20 35 -17 22 -20 23 -20 7z"/>
<path d="M4100 5480 c-11 -11 -20 -28 -20 -37 0 -11 8 -6 25 17 14 19 25 35
25 37 0 8 -12 1 -30 -17z"/>
<path d="M1898 5423 l-28 -36 28 -18 c15 -9 50 -37 79 -61 29 -23 75 -61 102
-83 27 -22 53 -49 58 -59 8 -18 13 -14 47 30 l37 49 -24 6 c-22 6 -48 24 -86
59 -9 9 -49 42 -88 74 -40 32 -73 62 -73 67 0 20 -27 6 -52 -28z"/>
<path d="M3185 5450 c-4 -6 4 -10 18 -10 14 0 31 -10 40 -22 9 -13 16 -18 16
-12 2 29 -60 66 -74 44z"/>
<path d="M4177 5453 c-12 -12 -7 -19 12 -19 15 0 17 3 9 13 -12 15 -13 15 -21
6z"/>
<path d="M3152 5418 c2 -6 10 -14 16 -16 7 -2 10 2 6 12 -7 18 -28 22 -22 4z"/>
<path d="M5175 5330 c-27 -56 -59 -108 -70 -116 -26 -18 -6 -18 62 2 32 9 52
20 50 27 -5 15 40 107 53 107 17 0 11 14 -17 49 l-28 33 -50 -102z"/>
<path d="M4137 5413 c-11 -11 -8 -25 4 -17 6 3 15 0 20 -7 11 -18 21 -6 13 15
-6 16 -25 21 -37 9z"/>
<path d="M3551 5394 c-82 -22 -149 -62 -222 -134 -161 -158 -199 -391 -97
-594 41 -81 149 -188 223 -222 249 -114 513 -43 659 178 132 199 105 467 -64
635 -68 68 -168 125 -248 142 -72 15 -185 13 -251 -5z m210 -243 c53 -1 78 -5
82 -14 3 -7 -6 -39 -19 -70 -14 -32 -22 -61 -20 -66 3 -4 24 -14 48 -21 24 -7
50 -20 59 -27 8 -7 25 -13 36 -13 12 0 23 -6 26 -14 4 -9 14 -12 25 -9 11 2
23 0 26 -6 4 -6 18 -11 31 -11 13 0 27 -4 30 -10 3 -5 23 -10 43 -10 l37 -1
-55 -52 c-109 -102 -215 -135 -301 -93 l-37 17 -45 -47 -45 -48 -44 47 c-40
43 -45 46 -64 33 -57 -40 -139 -28 -231 33 -58 39 -133 105 -133 117 0 3 14 4
32 2 20 -3 38 0 46 9 8 7 22 11 32 8 10 -3 21 -1 25 5 3 5 17 10 29 10 13 0
29 7 36 15 7 8 21 15 31 15 11 0 19 5 19 10 0 6 15 10 34 10 21 0 36 6 40 15
3 8 12 15 21 15 20 0 19 19 -5 71 -29 65 -27 77 18 82 20 2 55 3 77 1 22 -1
74 -3 116 -3z"/>
<path d="M3189 5377 c16 -19 41 -23 41 -5 0 6 -3 8 -6 5 -4 -3 -16 -1 -28 5
-19 10 -20 10 -7 -5z"/>
<path d="M3086 5351 c-6 -9 2 -22 25 -42 18 -15 36 -26 41 -23 8 5 -27 44 -41
44 -5 0 -11 8 -13 18 -3 13 -5 14 -12 3z"/>
<path d="M4205 5320 c-3 -5 -1 -10 4 -10 6 0 11 5 11 10 0 6 -2 10 -4 10 -3 0
-8 -4 -11 -10z"/>
<path d="M3040 5270 c0 -5 7 -7 15 -4 8 4 15 8 15 10 0 2 -7 4 -15 4 -8 0 -15
-4 -15 -10z"/>
<path d="M5326 5273 c-11 -11 -6 -23 9 -23 8 0 15 4 15 9 0 13 -16 22 -24 14z"/>
<path d="M3066 5224 c-9 -13 -14 -24 -12 -24 2 0 12 -3 22 -7 12 -4 15 -3 10
6 -5 7 -1 18 9 25 16 11 16 13 2 19 -10 4 -21 -3 -31 -19z"/>
<path d="M4972 5223 c2 -23 8 -29 35 -31 32 -3 32 -3 20 27 -8 23 -18 31 -35
31 -20 0 -23 -4 -20 -27z"/>
<path d="M5248 5243 c7 -3 16 -2 19 1 4 3 -2 6 -13 5 -11 0 -14 -3 -6 -6z"/>
<path d="M3010 5230 c0 -5 5 -10 10 -10 6 0 10 5 10 10 0 6 -4 10 -10 10 -5 0
-10 -4 -10 -10z"/>
<path d="M4260 5230 c-12 -8 -11 -10 8 -10 12 0 22 5 22 10 0 13 -11 13 -30 0z"/>
<path d="M4360 5210 c0 -5 -15 -20 -32 -31 -18 -12 -25 -18 -15 -15 11 3 30 9
43 12 24 6 32 28 14 39 -5 3 -10 1 -10 -5z"/>
<path d="M2795 5192 c-176 -75 -398 -232 -525 -368 -213 -231 -364 -527 -402
-788 l-12 -86 -36 -10 c-79 -21 -444 -39 -453 -22 -2 4 -7 20 -11 35 -6 25 0
34 46 77 29 28 49 50 43 51 -5 1 -34 2 -64 3 -61 1 -62 3 -86 90 -9 32 -20 55
-24 50 -4 -5 -13 -35 -20 -66 -11 -53 -28 -81 -47 -77 -5 1 -31 1 -59 0 l-50
-2 54 -48 54 -48 -16 -60 c-28 -97 -23 -102 42 -47 23 20 46 33 50 28 14 -16
44 -205 34 -215 -8 -8 -504 -256 -740 -370 -51 -24 -93 -47 -93 -51 0 -4 8 -9
18 -12 31 -10 535 -138 605 -154 38 -8 71 -21 74 -28 4 -11 -152 -282 -243
-421 -19 -28 -34 -54 -34 -57 0 -4 -11 -24 -25 -46 -28 -44 -30 -50 -16 -50 9
0 556 263 603 290 25 14 38 12 38 -5 0 -8 11 -21 23 -30 14 -9 40 -52 62 -103
51 -114 96 -198 164 -302 31 -47 58 -90 61 -95 9 -18 92 -127 144 -190 250
-299 588 -547 916 -673 30 -11 102 -35 160 -52 58 -18 123 -40 145 -50 83 -37
377 -51 615 -29 752 69 1435 571 1807 1327 47 96 90 172 98 172 7 0 61 -22
120 -50 59 -27 108 -50 109 -50 2 0 68 -31 147 -69 135 -64 217 -101 225 -101
15 0 -1 28 -240 430 -47 80 -86 151 -86 158 0 7 6 14 13 17 6 2 73 23 147 46
74 23 205 64 290 91 85 28 176 57 203 65 26 8 47 19 47 23 0 7 -70 41 -445
215 -252 117 -285 135 -285 151 0 9 7 59 16 111 19 109 17 113 -53 113 -23 0
-45 5 -49 12 -8 12 52 67 73 68 7 0 30 -16 52 -35 52 -47 62 -45 46 8 -28 97
-29 92 26 144 l51 48 -62 5 c-71 6 -71 6 -96 95 l-17 60 -21 -65 c-12 -36 -25
-71 -29 -78 -5 -7 -32 -12 -70 -12 l-62 -1 53 -48 c51 -47 53 -51 46 -88 -4
-21 -13 -53 -21 -71 -12 -30 -16 -32 -51 -27 -20 2 -120 12 -222 21 -102 9
-232 22 -290 28 l-104 11 -19 85 c-20 89 -94 321 -105 330 -4 3 -27 45 -52 93
-42 81 -76 133 -162 245 -38 51 -226 232 -239 232 -5 0 -9 -21 -10 -47 -7
-309 -138 -569 -374 -738 -121 -86 -127 -88 -288 -75 -78 6 -169 15 -202 19
-33 5 -63 7 -66 5 -7 -4 -298 -17 -338 -15 -68 3 -270 176 -346 296 -67 105
-112 217 -135 333 -22 114 -3 354 35 445 9 22 -7 21 -60 -1z m-195 -192 c0 -5
-4 -10 -10 -10 -5 0 -10 5 -10 10 0 6 5 10 10 10 6 0 10 -4 10 -10z m2043
-1062 c7 -21 -4 -38 -23 -38 -23 0 -34 16 -26 35 7 18 43 20 49 3z m-1224
-101 c30 -7 30 -63 0 -72 -14 -5 -19 -13 -16 -26 4 -13 0 -19 -11 -19 -10 0
-27 -3 -39 -6 -20 -5 -23 -2 -23 20 0 19 -5 26 -19 26 -34 0 -44 68 -11 77 13
3 20 14 20 29 0 17 6 23 28 26 21 2 29 -3 38 -23 7 -14 21 -29 33 -32z m626
-86 c3 -6 -13 -80 -35 -166 -30 -117 -38 -160 -30 -175 14 -25 13 -27 -11 -33
-29 -8 -49 2 -49 23 0 10 -4 20 -10 22 -5 2 1 26 14 53 14 28 27 67 31 88 6
37 6 37 -28 37 -32 0 -35 -3 -50 -51 -21 -65 -22 -115 -1 -127 14 -8 14 -10
-1 -22 -12 -10 -23 -11 -43 -4 -25 9 -27 14 -24 54 7 81 61 154 139 186 25 11
34 22 39 49 3 20 4 39 0 42 -9 10 15 33 35 33 10 0 20 -4 24 -9z m-1101 -91
c3 -41 5 -88 4 -105 -6 -123 -3 -150 15 -153 35 -7 47 16 47 94 0 63 -3 75
-22 88 -18 13 -19 17 -8 31 7 9 24 15 39 13 55 -7 53 -120 -4 -208 -41 -64
-49 -70 -95 -70 l-35 0 3 166 c2 113 -1 170 -8 179 -7 8 -9 19 -5 25 9 15 48
30 57 21 3 -3 9 -40 12 -81z m-454 48 c0 -7 -7 -33 -16 -58 -20 -56 -23 -248
-5 -301 7 -23 20 -39 34 -43 22 -6 22 -7 3 -21 -45 -34 -82 -9 -91 63 -10 72
-8 71 -57 61 -24 -4 -47 -8 -51 -9 -4 0 -19 -27 -34 -60 -14 -33 -29 -60 -33
-60 -5 0 -2 23 5 52 8 28 19 86 26 127 13 85 29 123 67 164 l26 27 -80 0 c-88
-1 -137 -15 -188 -54 -51 -38 -36 1 16 45 54 45 89 57 168 59 36 1 92 6 125
10 33 4 66 8 73 9 6 0 12 -5 12 -11z m2471 -18 c11 -6 19 -21 19 -35 0 -13 12
-41 26 -62 23 -34 25 -45 21 -100 -7 -91 -58 -164 -152 -220 -30 -18 -106 -16
-132 5 -34 27 -63 84 -63 124 0 107 102 246 209 284 45 16 48 16 72 4z m337
-14 c6 -27 -10 -36 -51 -29 -46 7 -47 20 -4 38 38 17 51 15 55 -9z m-1890 -13
c-2 -22 -8 -28 -28 -29 -57 -3 -61 -4 -58 -21 2 -9 21 -26 43 -37 40 -21 54
-49 41 -83 -6 -14 -9 -14 -25 4 -10 11 -33 25 -50 33 -43 17 -49 50 -20 105
24 45 34 52 77 54 20 1 23 -3 20 -26z m165 15 c2 -7 0 -21 -4 -30 -7 -14 -14
-15 -39 -5 -22 8 -33 8 -41 0 -18 -18 -3 -41 38 -60 44 -21 52 -49 29 -96 -27
-54 -43 -69 -78 -70 -26 -2 -34 2 -36 18 -1 11 2 26 7 34 8 12 12 12 25 2 9
-8 26 -11 42 -7 39 10 28 46 -23 74 -55 30 -58 62 -9 115 34 38 80 50 89 25z
m224 -16 c10 -6 7 -31 -13 -110 -21 -84 -24 -106 -13 -118 10 -13 10 -17 -2
-25 -21 -14 -43 -6 -54 19 -11 25 -30 29 -39 7 -8 -23 -53 -19 -66 6 -20 36 6
115 54 167 52 57 99 76 133 54z m-541 -19 c-3 -10 -7 -60 -8 -111 -2 -73 0
-95 12 -102 11 -7 18 -3 28 16 11 20 16 23 27 14 9 -7 27 -9 47 -5 32 7 32 7
16 -16 -22 -34 -57 -50 -81 -38 -12 7 -28 7 -50 -1 -28 -9 -34 -8 -49 12 -12
15 -16 32 -13 48 4 14 9 53 12 88 5 59 4 62 -17 62 -36 0 -49 -28 -50 -103 0
-61 2 -70 20 -74 27 -7 25 -19 -5 -39 -31 -20 -50 -8 -59 37 -13 64 15 135 81
205 28 30 98 35 89 7z m896 -27 c101 17 101 -125 1 -222 -29 -29 -42 -35 -72
-32 -52 4 -70 40 -53 105 7 26 27 65 44 87 23 28 27 40 18 46 -7 4 -9 13 -5
19 5 8 11 9 19 2 7 -6 28 -8 48 -5z m1013 -23 c-7 -21 -16 -53 -20 -71 -6 -30
-5 -33 25 -38 43 -9 36 -37 -10 -44 l-34 -5 -22 -106 c-27 -127 -42 -165 -82
-205 -58 -59 -127 -78 -170 -48 -25 18 -28 36 -8 53 12 10 19 8 35 -8 30 -30
95 -29 115 2 16 24 60 192 72 271 5 36 3 50 -7 57 -11 7 -10 12 7 27 12 9 31
39 43 67 35 80 80 119 56 48z m-2347 -93 c2 -69 7 -99 19 -112 14 -16 14 -19
-8 -37 -50 -42 -59 -26 -59 104 0 66 -4 95 -12 98 -18 6 21 49 41 45 13 -3 17
-22 19 -98z m1508 70 l6 -30 26 20 c26 21 72 27 72 9 0 -6 -5 -19 -11 -30 -8
-16 -13 -18 -25 -8 -11 9 -21 9 -38 1 -22 -10 -38 -44 -68 -142 -10 -34 -19
-46 -35 -48 -13 -2 -23 -1 -23 3 0 4 11 52 25 107 21 80 23 103 14 115 -10 12
-10 16 2 24 28 18 49 10 55 -21z m-1616 -20 c19 -27 21 -35 11 -81 -6 -27 -11
-67 -11 -88 0 -39 -20 -68 -39 -56 -6 3 -10 40 -8 89 1 56 -3 91 -12 109 -13
25 -13 29 5 42 26 20 30 19 54 -15z m1836 5 c4 -8 3 -22 0 -30 -5 -14 -9 -14
-34 -1 -26 13 -32 13 -48 1 -18 -14 -17 -17 24 -52 23 -21 42 -46 42 -56 0
-28 -52 -96 -77 -103 -33 -9 -57 -1 -61 20 -6 28 12 40 38 26 29 -16 70 -5 70
19 0 9 -18 32 -40 50 -22 17 -40 40 -40 50 0 10 14 34 31 54 34 40 84 51 95
22z m-2502 -47 c-30 -114 34 -196 121 -156 46 21 47 84 2 106 -23 11 -26 16
-16 28 17 20 57 17 69 -5 26 -49 2 -115 -59 -168 -31 -26 -50 -28 -96 -9 -73
31 -86 167 -24 243 17 20 17 17 3 -39z m554 23 c3 -18 6 -21 12 -10 14 22 23
3 10 -22 -7 -12 -15 -60 -18 -106 -4 -66 -9 -86 -22 -93 -25 -14 -30 5 -30
115 0 76 -3 96 -16 103 -14 8 -14 11 7 26 31 22 53 17 57 -13z m3317 -181 c3
-5 19 -10 35 -10 37 0 47 -16 25 -40 -9 -10 -14 -23 -11 -28 7 -12 -25 -72
-38 -72 -5 0 -14 -8 -21 -17 -11 -15 -15 -15 -30 -3 -14 12 -16 25 -12 70 8
86 32 132 52 100z m-4995 -75 c0 -19 -20 -29 -32 -17 -8 8 -7 16 2 26 14 17
30 12 30 -9z m368 -1 c9 -9 24 -13 38 -10 26 7 42 -10 25 -27 -18 -18 -13 -37
9 -37 11 0 20 -7 20 -15 0 -11 -7 -14 -25 -9 -14 3 -25 2 -25 -3 0 -5 -14 -25
-30 -43 -28 -32 -32 -33 -53 -20 -12 8 -39 16 -61 19 -43 7 -66 40 -42 63 7 7
23 35 36 61 23 47 25 48 59 42 18 -4 41 -13 49 -21z m861 -11 c8 -16 14 -16
42 -6 57 22 53 -10 -4 -41 -49 -26 -87 -16 -87 23 0 43 30 58 49 24z m3861 -3
c0 -5 -7 -10 -15 -10 -8 0 -15 5 -15 10 0 6 7 10 15 10 8 0 15 -4 15 -10z
m-2980 -194 c0 -3 -4 -8 -10 -11 -5 -3 -10 -1 -10 4 0 6 5 11 10 11 6 0 10 -2
10 -4z m770 -41 c58 -8 155 -21 215 -29 61 -9 136 -18 168 -22 31 -3 60 -10
63 -15 3 -5 23 -6 44 -3 32 5 40 3 49 -14 9 -18 15 -19 51 -10 29 8 44 8 52 0
11 -11 -16 -30 -271 -191 -172 -109 -192 -112 -297 -56 -35 19 -70 35 -77 35
-13 0 -120 -115 -150 -161 l-18 -28 -59 57 c-32 31 -67 76 -79 100 -12 23 -24
42 -28 42 -4 0 -18 -11 -32 -24 -15 -13 -61 -34 -105 -47 -69 -20 -85 -21
-133 -11 -75 16 -162 62 -272 144 -108 81 -144 118 -130 133 5 5 40 9 76 8 37
-1 75 3 86 9 18 9 73 19 372 64 55 8 136 21 180 29 84 14 124 13 295 -10z
m2150 -85 c0 -5 -7 -10 -16 -10 -8 0 -12 5 -9 10 3 6 10 10 16 10 5 0 9 -4 9
-10z m-4630 -75 c0 -8 -4 -15 -10 -15 -5 0 -10 7 -10 15 0 8 5 15 10 15 6 0
10 -7 10 -15z m1476 -216 c3 -6 0 -18 -9 -26 -18 -18 -37 -9 -37 18 0 21 34
27 46 8z m2684 -109 c0 -11 -6 -20 -13 -20 -19 0 -27 10 -20 26 8 21 33 17 33
-6z m-1370 0 c0 -5 12 -20 26 -34 l27 -24 -37 -38 -36 -37 -36 36 -36 36 21
18 c12 9 21 23 21 29 0 13 15 22 38 23 6 1 12 -3 12 -9z m-1127 -75 c1 -5 -6
-11 -15 -13 -11 -2 -18 3 -18 13 0 17 30 18 33 0z m151 -86 c60 -17 96 -58 96
-110 0 -81 -62 -139 -147 -139 -81 0 -116 43 -77 98 23 34 44 28 44 -13 0 -38
20 -55 64 -55 68 0 91 97 36 144 -58 48 -173 48 -243 -1 -61 -42 -90 -96 -95
-173 -6 -102 26 -158 113 -200 46 -22 101 -24 148 -5 35 14 16 -15 -23 -35
-74 -38 -175 -22 -234 36 -87 88 -76 253 25 354 88 88 199 125 293 99z m758
-43 c-3 -26 -35 -65 -54 -66 -15 0 -8 69 8 85 25 25 50 15 46 -19z m368 -29
c0 -33 6 -36 47 -25 19 5 37 7 40 4 13 -13 -12 -45 -47 -59 -37 -14 -40 -18
-40 -55 0 -21 3 -67 7 -102 5 -49 10 -64 25 -68 27 -7 22 -18 -18 -37 -54 -26
-62 -12 -66 119 -2 95 -5 110 -23 122 -14 10 -17 18 -10 28 6 7 22 32 38 55
31 46 47 52 47 18z m-871 -51 c0 -6 -15 -49 -34 -96 -27 -68 -31 -87 -20 -94
11 -8 8 -18 -14 -50 -15 -23 -35 -59 -44 -81 -35 -80 -42 -90 -70 -93 -16 -2
-27 1 -27 9 0 7 22 71 49 143 79 213 82 221 65 245 -14 19 -13 21 8 25 68 15
89 13 87 -8z m729 -41 c1 -11 -2 -26 -7 -34 -8 -12 -12 -12 -25 -2 -17 14 -81
8 -91 -9 -14 -22 16 -47 69 -59 73 -16 83 -30 68 -88 -17 -61 -49 -100 -96
-115 -34 -10 -40 -10 -51 6 -23 30 2 79 29 57 18 -15 75 -2 86 20 17 30 2 45
-61 63 -80 22 -93 48 -58 113 27 51 61 74 104 70 22 -1 31 -8 33 -22z m-228
-129 c0 -122 4 -146 26 -146 8 0 14 -4 14 -10 0 -16 -48 -42 -72 -38 -22 3
-23 7 -25 113 -4 142 -7 155 -35 148 -18 -4 -16 0 11 21 19 14 45 26 58 26 23
0 23 -2 23 -114z m-142 56 c3 -30 1 -32 -31 -32 -23 0 -41 -8 -57 -25 -21 -22
-24 -37 -28 -130 -4 -91 -7 -107 -24 -116 -10 -5 -23 -7 -28 -4 -6 3 -11 48
-11 98 -2 119 -9 149 -38 163 l-24 12 34 21 c19 12 39 21 45 21 17 0 34 -23
34 -47 0 -13 5 -23 10 -23 6 0 10 6 10 13 0 27 72 90 95 83 6 -1 11 -17 13
-34z m-1698 -42 c0 -5 -4 -10 -10 -10 -5 0 -10 5 -10 10 0 6 5 10 10 10 6 0
10 -4 10 -10z m1433 -23 c-1 -15 -14 -58 -29 -95 -14 -37 -29 -84 -32 -104 -4
-35 -2 -38 19 -39 23 -1 22 -1 -6 -14 -16 -8 -45 -14 -62 -15 -43 0 -42 8 4
143 37 106 38 108 18 119 -19 11 -18 12 10 25 17 7 41 12 55 10 21 -2 25 -7
23 -30z m-1019 -353 c10 -27 7 -54 -8 -60 -29 -11 -85 43 -70 67 9 16 71 10
78 -7z m1144 -77 c6 -28 -16 -49 -39 -36 -19 10 -25 39 -12 53 13 13 48 1 51
-17z"/>
<path d="M2379 3628 c-29 -33 -79 -162 -66 -174 3 -3 25 0 48 7 43 14 43 14
54 79 6 36 16 75 23 87 16 29 15 33 -9 33 -11 0 -33 -15 -50 -32z"/>
<path d="M4843 3635 c-60 -26 -91 -70 -113 -158 -10 -38 -9 -54 5 -97 15 -46
23 -55 60 -71 43 -19 54 -19 112 7 49 22 87 110 80 183 -7 63 -38 101 -83 101
-35 0 -74 -42 -74 -79 0 -30 6 -38 45 -66 19 -13 19 -14 -8 -24 -53 -20 -85
18 -73 84 7 35 66 97 105 110 12 3 21 11 21 16 0 13 -40 10 -77 -6z m-43 -224
c0 -6 -4 -13 -10 -16 -5 -3 -10 1 -10 9 0 9 5 16 10 16 6 0 10 -4 10 -9z"/>
<path d="M3693 3618 c-15 -20 -43 -101 -43 -125 0 -25 21 -45 37 -35 18 11 52
94 55 133 3 28 -1 35 -18 37 -11 2 -25 -3 -31 -10z"/>
<path d="M4109 3559 c-45 -63 -44 -169 0 -169 24 0 43 34 61 108 11 47 10 55
-5 72 -24 27 -30 25 -56 -11z"/>
<path d="M5835 5073 l-20 -58 -68 -5 -68 -5 50 -39 c56 -42 59 -54 35 -116 -9
-23 -14 -43 -11 -46 3 -3 27 11 55 30 l50 36 52 -36 c28 -19 54 -34 56 -31 2
2 -3 23 -11 47 -22 64 -19 76 30 112 24 18 44 36 45 41 0 4 -27 7 -60 7 l-61
0 -19 46 c-11 25 -20 52 -20 60 0 31 -16 11 -35 -43z"/>
<path d="M1304 5068 l-19 -53 -70 -5 -70 -5 47 -35 c26 -19 50 -41 53 -49 3
-8 -2 -36 -11 -63 -9 -27 -14 -52 -11 -55 3 -3 26 9 51 26 24 17 51 31 58 31
7 0 33 -16 57 -35 24 -19 46 -33 48 -31 3 2 -3 25 -11 50 -23 68 -21 79 29
116 25 19 45 37 45 41 0 5 -30 9 -67 11 l-66 3 -15 53 c-8 28 -18 52 -22 52
-4 0 -16 -24 -26 -52z"/>
<path d="M4340 5095 c-31 -18 -16 -18 30 0 23 9 28 14 15 14 -11 0 -31 -6 -45
-14z"/>
<path d="M2995 5080 c-9 -15 2 -27 29 -32 15 -3 27 0 30 8 3 8 0 11 -8 8 -7
-3 -20 2 -29 11 -10 9 -18 11 -22 5z"/>
<path d="M2965 5070 c3 -5 8 -10 11 -10 2 0 4 5 4 10 0 6 -5 10 -11 10 -5 0
-7 -4 -4 -10z"/>
<path d="M4345 5020 c4 -6 16 -8 27 -5 12 4 27 0 39 -11 16 -15 19 -15 19 -2
0 16 -28 28 -68 28 -14 0 -21 -4 -17 -10z"/>
<path d="M2962 4986 c19 -14 81 -10 72 5 -3 5 -24 9 -47 9 -37 -1 -40 -2 -25
-14z"/>
<path d="M4350 4965 c-10 -12 -10 -15 3 -15 19 0 31 16 18 24 -5 3 -14 -1 -21
-9z"/>
<path d="M2970 4925 c-11 -13 -8 -15 20 -15 19 0 31 1 29 3 -2 1 -11 8 -20 15
-13 10 -19 9 -29 -3z"/>
<path d="M4397 4870 c5 -20 7 -20 24 -4 24 22 24 24 -5 24 -19 0 -23 -4 -19
-20z"/>
<path d="M2940 4820 c0 -14 4 -20 8 -14 4 6 27 15 52 20 l45 10 -53 5 c-50 4
-52 3 -52 -21z"/>
<path d="M4350 4825 c-7 -9 -11 -17 -9 -20 8 -7 78 -9 85 -2 4 4 -7 7 -25 7
-25 0 -32 4 -27 15 7 19 -8 19 -24 0z"/>
<path d="M3090 4501 c-7 -14 -7 -21 0 -21 5 0 10 4 10 9 0 17 40 23 57 9 14
-11 16 -11 11 2 -2 8 -19 16 -36 18 -23 2 -33 -2 -42 -17z"/>
<path d="M4246 4508 c12 -5 27 -20 32 -32 l11 -21 0 22 c1 22 -25 44 -51 42
-7 0 -3 -5 8 -11z"/>
<path d="M4186 4482 c-3 -5 3 -17 14 -27 23 -21 26 -9 6 18 -8 10 -17 14 -20
9z"/>
<path d="M3182 4438 c-14 -14 -16 -38 -3 -38 5 0 11 11 13 25 6 29 6 29 -10
13z"/>
<path d="M4235 4430 c3 -5 10 -10 16 -10 5 0 9 5 9 10 0 6 -7 10 -16 10 -8 0
-12 -4 -9 -10z"/>
<path d="M4171 4417 c2 -1 12 -9 22 -16 15 -12 17 -12 11 3 -3 9 -13 16 -22
16 -8 0 -13 -1 -11 -3z"/>
<path d="M3235 4389 c-22 -11 -50 -48 -42 -56 5 -5 29 17 56 50 15 19 14 20
-14 6z"/>
<path d="M4111 4379 c-1 -25 33 -68 45 -56 3 3 -3 10 -14 16 -12 6 -23 23 -25
38 l-4 28 -2 -26z"/>
<path d="M3261 4326 c-8 -13 -11 -30 -8 -38 3 -8 6 -5 6 8 1 11 6 25 13 32 6
6 9 14 7 17 -3 3 -11 -6 -18 -19z"/>
<path d="M3322 4295 c-25 -29 -29 -43 -6 -25 15 13 38 50 31 50 -2 0 -13 -11
-25 -25z"/>
<path d="M3390 4299 c0 -5 5 -7 10 -4 6 3 10 8 10 11 0 2 -4 4 -10 4 -5 0 -10
-5 -10 -11z"/>
<path d="M4080 4294 c0 -8 5 -12 10 -9 6 4 8 11 5 16 -9 14 -15 11 -15 -7z"/>
<path d="M3420 4275 c0 -15 4 -24 10 -20 6 3 10 12 10 20 0 8 -4 17 -10 20 -6
4 -10 -5 -10 -20z"/>
<path d="M3368 4262 c-4 -15 0 -22 15 -26 30 -8 34 1 10 25 -20 21 -20 21 -25
1z"/>
<path d="M3877 4273 c-4 -3 -7 -11 -7 -17 0 -6 5 -5 12 2 6 6 9 14 7 17 -3 3
-9 2 -12 -2z"/>
<path d="M4000 4275 c0 -19 23 -35 50 -34 l25 2 -25 4 c-13 3 -30 12 -37 21
-7 10 -13 12 -13 7z"/>
<path d="M3468 4244 c-15 -14 -8 -53 11 -64 27 -14 38 -13 19 3 -9 6 -18 25
-20 40 -2 16 -6 25 -10 21z"/>
<path d="M3773 4243 c9 -2 25 -2 35 0 9 3 1 5 -18 5 -19 0 -27 -2 -17 -5z"/>
<path d="M3643 4221 c-12 -19 -7 -61 7 -61 9 0 19 70 10 75 -3 2 -11 -4 -17
-14z"/>
<path d="M3877 4219 c4 -13 9 -17 15 -11 11 11 3 32 -12 32 -4 0 -6 -9 -3 -21z"/>
<path d="M3574 4216 c-10 -27 2 -43 14 -19 8 14 9 24 2 28 -6 3 -13 -1 -16 -9z"/>
<path d="M3740 4200 c0 -11 4 -20 9 -20 6 0 9 9 8 20 -1 11 -5 20 -9 20 -4 0
-8 -9 -8 -20z"/>
<path d="M1506 1049 c-9 -46 -7 -119 3 -119 5 0 20 24 35 53 18 39 35 58 61
70 74 35 73 36 78 -140 3 -87 6 -162 6 -168 0 -5 -3 -48 -7 -95 -6 -72 -10
-85 -24 -84 -10 1 -18 -2 -18 -7 0 -5 54 -9 120 -9 68 0 120 4 120 9 0 5 -12
11 -27 13 l-28 3 -5 226 c-3 124 -4 233 -2 243 5 24 46 30 83 11 40 -21 65
-50 79 -92 7 -18 16 -33 21 -33 10 0 12 72 3 119 l-6 31 -243 0 -242 0 -7 -31z"/>
<path d="M5948 1062 c-71 -3 -83 -11 -45 -27 22 -10 22 -13 25 -230 3 -234 0
-265 -23 -265 -8 0 -15 -4 -15 -10 0 -6 37 -10 93 -10 78 1 89 3 75 14 -15 11
-17 36 -19 202 -1 104 -1 219 0 255 1 47 -2 68 -11 70 -7 2 -43 3 -80 1z"/>
<path d="M3829 1041 c-48 -27 -105 -85 -132 -135 -16 -30 -21 -59 -22 -111 0
-81 7 -113 32 -140 10 -11 29 -37 43 -57 37 -56 104 -88 180 -88 37 0 76 7 96
16 28 13 40 14 60 5 14 -6 27 -11 29 -11 3 0 5 34 5 75 0 43 -4 75 -10 75 -5
0 -19 -20 -31 -44 -31 -66 -75 -96 -142 -96 -45 0 -58 4 -78 26 -23 25 -24 30
-27 214 -3 160 -1 195 13 224 41 86 181 62 229 -39 10 -20 23 -34 29 -32 15 4
21 49 13 92 -6 30 -9 33 -49 33 -23 0 -78 3 -122 6 -67 5 -86 3 -116 -13z"/>
<path d="M4190 1050 c0 -5 7 -10 15 -10 8 0 18 -8 23 -17 14 -26 16 -469 3
-478 -27 -16 -5 -25 64 -25 43 0 75 4 75 10 0 6 -5 10 -11 10 -7 0 -10 38 -9
118 1 64 2 181 1 260 l-1 142 -80 0 c-47 0 -80 -4 -80 -10z"/>
<path d="M2077 865 c-82 -29 -121 -89 -115 -177 3 -47 10 -64 34 -89 36 -39
82 -59 131 -58 l38 1 -34 12 c-41 14 -49 33 -50 104 -1 48 1 53 25 62 15 6 58
9 97 6 106 -6 111 -2 76 71 -20 42 -60 73 -95 73 -12 0 -14 -3 -6 -13 6 -7 14
-31 18 -53 8 -51 -9 -66 -68 -62 -42 3 -43 4 -46 40 -4 44 11 76 41 88 36 14
-5 10 -46 -5z"/>
<path d="M2580 876 c0 -2 7 -17 15 -32 18 -35 19 -76 3 -92 -13 -13 -66 -16
-92 -6 -22 8 -21 72 1 96 9 10 13 21 10 24 -13 13 -60 -8 -100 -45 -37 -35
-41 -43 -45 -100 -3 -35 1 -73 8 -90 20 -48 128 -108 145 -81 3 5 2 10 -3 10
-28 0 -45 137 -19 157 6 6 50 9 97 9 106 -2 112 -1 103 32 -6 24 -41 92 -48
92 -1 0 -19 7 -39 15 -20 8 -36 13 -36 11z"/>
<path d="M2823 872 c-54 -3 -70 -15 -33 -25 19 -5 20 -14 20 -133 0 -105 -3
-131 -17 -146 -15 -17 -13 -18 73 -18 79 1 87 2 70 15 -17 13 -18 25 -14 132
7 175 3 181 -99 175z"/>
<path d="M3025 873 c-24 -6 -45 -23 -28 -23 6 0 19 -7 27 -16 13 -12 16 -40
16 -134 0 -94 -3 -122 -16 -134 -14 -15 -7 -16 72 -16 72 0 85 2 72 13 -13 9
-17 37 -20 132 -2 66 -9 130 -16 141 -10 19 -63 46 -81 43 -3 -1 -15 -3 -26
-6z"/>
<path d="M3348 873 c6 -2 18 -2 25 0 6 3 1 5 -13 5 -14 0 -19 -2 -12 -5z"/>
<path d="M3261 834 c-30 -38 -28 -103 2 -132 31 -29 71 -30 62 -2 -5 15 0 23
20 32 33 15 28 29 -15 43 -44 15 -59 38 -42 65 18 29 -3 24 -27 -6z"/>
<path d="M3426 829 c23 -24 30 -27 32 -14 6 28 -7 45 -35 45 l-27 0 30 -31z"/>
<path d="M4443 843 c-12 -2 -27 -11 -33 -19 -10 -12 -8 -14 13 -14 39 0 47
-26 47 -150 0 -89 -3 -112 -15 -116 -37 -15 -8 -24 72 -24 l87 0 -23 21 c-15
14 -22 31 -21 53 6 113 -1 205 -17 225 -18 22 -69 33 -110 24z"/>
<path d="M4928 843 c-58 -4 -79 -19 -35 -25 20 -3 22 -9 25 -86 2 -45 -1 -98
-7 -117 -6 -21 -6 -37 0 -41 5 -3 9 -16 9 -28 0 -29 18 -34 93 -28 58 5 74 15
37 25 -18 5 -20 15 -22 153 -3 169 7 154 -100 147z"/>
<path d="M5173 843 c-54 -4 -69 -16 -33 -26 19 -5 20 -14 20 -133 0 -105 -3
-131 -17 -146 -15 -17 -13 -18 75 -18 55 0 92 4 92 10 0 6 -6 10 -14 10 -20 0
-26 23 -26 98 1 84 14 143 36 159 18 13 38 8 28 -8 -11 -18 25 -59 53 -59 49
0 70 61 33 95 -30 27 -75 23 -108 -8 -29 -28 -42 -27 -42 4 0 15 -22 32 -38
27 -4 -1 -31 -3 -59 -5z"/>
<path d="M5706 841 c-4 -5 0 -11 6 -14 10 -3 11 -11 1 -37 -11 -28 -10 -38 2
-57 19 -28 45 -29 76 -4 20 16 22 23 14 47 -6 16 -25 39 -44 51 -37 25 -47 28
-55 14z"/>
<path d="M6135 843 c-11 -3 -29 -12 -40 -19 -18 -13 -17 -14 17 -14 45 0 48
-9 48 -153 0 -100 -2 -109 -20 -114 -45 -12 -3 -23 76 -21 76 2 109 12 68 20
-14 3 -17 23 -20 133 -3 107 -7 132 -21 146 -20 19 -76 30 -108 22z"/>
<path d="M4650 830 c0 -5 6 -10 14 -10 8 0 18 5 21 10 3 6 -3 10 -14 10 -12 0
-21 -4 -21 -10z"/>
<path d="M4753 834 c12 -12 -14 -46 -30 -39 -9 3 -20 0 -25 -7 -14 -23 -9
-206 7 -237 20 -40 74 -52 132 -30 l28 11 -32 13 -33 14 0 141 0 140 -27 0
c-14 0 -23 -3 -20 -6z"/>
<path d="M5566 803 c-55 -43 -66 -65 -66 -132 0 -61 29 -106 89 -138 46 -24
125 -31 136 -13 4 6 -9 10 -33 10 -65 0 -75 20 -74 150 1 61 6 119 12 129 23
45 -3 42 -64 -6z"/>
<path d="M3460 653 c0 -10 4 -25 10 -33 8 -12 10 -12 16 3 7 20 -1 47 -16 47
-5 0 -10 -8 -10 -17z"/>
<path d="M3240 603 l0 -48 50 -1 49 -2 -27 23 c-15 13 -34 35 -41 49 -21 39
-31 32 -31 -21z"/>
<path d="M2280 629 c0 -5 5 -7 10 -4 6 3 10 8 10 11 0 2 -4 4 -10 4 -5 0 -10
-5 -10 -11z"/>
<path d="M2255 596 c-23 -25 -26 -40 -4 -19 12 12 21 24 18 27 -2 2 -9 -1 -14
-8z"/>
<path d="M3445 580 c-15 -17 -16 -20 -3 -20 9 0 19 7 22 16 10 25 1 27 -19 4z"/>
<path d="M2638 563 c7 -3 16 -2 19 1 4 3 -2 6 -13 5 -11 0 -14 -3 -6 -6z"/>
<path d="M2558 543 c7 -3 16 -2 19 1 4 3 -2 6 -13 5 -11 0 -14 -3 -6 -6z"/>
<path d="M5750 540 c-9 -6 -10 -10 -3 -10 6 0 15 5 18 10 8 12 4 12 -15 0z"/>
</g>
</svg>
